<svg width="72" height="72" viewBox="0 0 72 72" fill="none" xmlns="http://www.w3.org/2000/svg">
<circle cx="36" cy="36" r="36" fill="#01AAFF"/>
<path d="M30.75 31C30.75 27.8244 33.3244 25.25 36.5 25.25C39.6756 25.25 42.25 27.8244 42.25 31V35C42.25 38.1756 39.6756 40.75 36.5 40.75C33.3244 40.75 30.75 38.1756 30.75 35V31Z" fill="white"/>
<path fill-rule="evenodd" clip-rule="evenodd" d="M28.7222 34.25C29.2592 34.25 29.6944 34.6805 29.6944 35.2115C29.6944 38.9288 32.7414 41.9423 36.5 41.9423C40.2586 41.9423 43.3056 38.9288 43.3056 35.2115C43.3056 34.6805 43.7408 34.25 44.2778 34.25C44.8147 34.25 45.25 34.6805 45.25 35.2115C45.25 39.6659 41.8472 43.3343 37.4722 43.8126V44.8269H39.4167C39.9536 44.8269 40.3889 45.2574 40.3889 45.7885C40.3889 46.3195 39.9536 46.75 39.4167 46.75H33.5833C33.0464 46.75 32.6111 46.3195 32.6111 45.7885C32.6111 45.2574 33.0464 44.8269 33.5833 44.8269H35.5278V43.8126C31.1528 43.3343 27.75 39.6659 27.75 35.2115C27.75 34.6805 28.1853 34.25 28.7222 34.25Z" fill="white"/>
</svg>
