<svg width="24" height="24" viewBox="0 0 24 24" fill="none" xmlns="http://www.w3.org/2000/svg">
<path fill-rule="evenodd" clip-rule="evenodd" d="M19.8842 4.11587C20.3723 4.60403 20.3723 5.39549 19.8842 5.88364L5.88413 19.8837C5.39597 20.3718 4.60451 20.3718 4.11636 19.8837C3.6282 19.3955 3.6282 18.604 4.11636 18.1159L18.1164 4.11587C18.6046 3.62772 19.396 3.62772 19.8842 4.11587Z" fill="#A8B6C6"/>
<path fill-rule="evenodd" clip-rule="evenodd" d="M4.11636 4.11587C4.60451 3.62772 5.39597 3.62772 5.88413 4.11587L19.8842 18.1159C20.3723 18.604 20.3723 19.3955 19.8842 19.8837C19.396 20.3718 18.6046 20.3718 18.1164 19.8837L4.11636 5.88364C3.6282 5.39549 3.6282 4.60403 4.11636 4.11587Z" fill="#A8B6C6"/>
</svg>
