<svg width="18" height="18" viewBox="0 0 18 18" fill="none" xmlns="http://www.w3.org/2000/svg">
<path fill-rule="evenodd" clip-rule="evenodd" d="M9.0429 1.3125C10.6859 1.31249 11.9764 1.31249 12.984 1.44794C14.0164 1.58676 14.8357 1.87704 15.4793 2.52068C16.123 3.16433 16.4132 3.98353 16.5521 5.01602C16.6875 6.02358 16.6875 7.3141 16.6875 8.9571V9.0429C16.6875 10.6859 16.6875 11.9764 16.5521 12.984C16.4132 14.0164 16.123 14.8357 15.4793 15.4793C14.8357 16.123 14.0164 16.4132 12.984 16.5521C11.9764 16.6875 10.6859 16.6875 9.0429 16.6875H8.9571C7.31407 16.6875 6.02358 16.6875 5.01602 16.5521C3.98353 16.4132 3.16433 16.123 2.52068 15.4793C1.87704 14.8357 1.58676 14.0164 1.44794 12.984C1.31249 11.9764 1.31249 10.6859 1.3125 9.0429V8.9571C1.31249 7.31408 1.31249 6.02358 1.44794 5.01602C1.58676 3.98353 1.87704 3.16433 2.52068 2.52068C3.16433 1.87704 3.98353 1.58676 5.01602 1.44794C6.02358 1.31249 7.31409 1.31249 8.9571 1.3125H9.0429ZM12.5068 6.19714C12.8121 6.47703 12.8327 6.95146 12.5529 7.2568L8.4279 11.7568C8.2896 11.9076 8.0958 11.9953 7.89127 11.9998C7.68675 12.0043 7.48932 11.925 7.34467 11.7803L5.46967 9.90532C5.17678 9.61245 5.17678 9.13755 5.46967 8.84468C5.76257 8.5518 6.23744 8.5518 6.53033 8.84468L7.85145 10.1658L11.4471 6.24321C11.727 5.93787 12.2014 5.91724 12.5068 6.19714Z" fill="#42D277"/>
</svg>
