<svg width="16" height="16" viewBox="0 0 16 16" fill="none" xmlns="http://www.w3.org/2000/svg">
<path fill-rule="evenodd" clip-rule="evenodd" d="M0.833252 8.00001C0.833259 11.9581 4.04188 15.1667 7.99991 15.1667C11.958 15.1667 15.1666 11.9581 15.1666 8.00001C15.1666 4.04197 11.958 0.833344 7.99991 0.833344C4.04188 0.833344 0.833252 4.04197 0.833252 8.00001ZM8.30645 7.95828C8.31411 7.97514 8.31978 7.98894 8.32398 7.99994C8.31978 8.01094 8.31411 8.02481 8.30645 8.04168C8.27171 8.11848 8.21425 8.22021 8.13165 8.34488C7.96678 8.59368 7.73758 8.88061 7.49538 9.16108C7.25551 9.43874 7.01405 9.69708 6.83171 9.88688L6.53281 10.191C6.27016 10.4489 6.26626 10.8711 6.52421 11.1338C6.78218 11.3965 7.20425 11.4003 7.46698 11.1423L7.79305 10.8107C7.98565 10.6103 8.24425 10.3338 8.50438 10.0327C8.76211 9.73428 9.03298 9.39848 9.24311 9.08141C9.34798 8.92308 9.44671 8.75608 9.52138 8.59101C9.59071 8.43761 9.66651 8.22774 9.66651 7.99994C9.66651 7.77221 9.59071 7.56234 9.52138 7.40894C9.44671 7.24388 9.34798 7.07681 9.24311 6.91854C9.03298 6.60148 8.76211 6.2657 8.50438 5.9673C8.24425 5.66616 7.98565 5.38961 7.79305 5.18918L7.46698 4.85761C7.20425 4.59964 6.78218 4.60347 6.52421 4.86617C6.26626 5.12886 6.27016 5.55099 6.53281 5.80897L6.83171 6.11307C7.01405 6.30284 7.25551 6.56121 7.49538 6.83888C7.73758 7.11934 7.96678 7.40628 8.13165 7.65508C8.21425 7.77974 8.27171 7.88148 8.30645 7.95828Z" fill="#A8B6C6"/>
</svg>
