<svg width="72" height="72" viewBox="0 0 72 72" fill="none" xmlns="http://www.w3.org/2000/svg">
<circle cx="36" cy="36" r="36" fill="#EBEEF0"/>
<path fill-rule="evenodd" clip-rule="evenodd" d="M36.6453 41.1084L36.556 41.051C35.2394 40.2046 34.193 39.5319 33.4495 38.9165C32.6931 38.2904 32.1351 37.6332 31.9559 36.78C31.848 36.2661 31.848 35.7341 31.9559 35.2202C32.1351 34.367 32.6931 33.7098 33.4495 33.0837C34.193 32.4682 35.2394 31.7956 36.5559 30.9492L36.6453 30.8918C38.0789 29.9701 39.2142 29.2402 40.1406 28.7927C41.0727 28.3423 41.9588 28.0924 42.8338 28.36C43.3499 28.5178 43.8225 28.7944 44.2173 29.1669C44.8781 29.7901 45.1344 30.6855 45.2549 31.7431C45.375 32.7973 45.375 34.1864 45.375 35.9493V36.0509C45.375 37.8138 45.375 39.2029 45.2549 40.257C45.1344 41.3147 44.8781 42.2101 44.2173 42.8333C43.8225 43.2057 43.3499 43.4824 42.8338 43.6402C41.9588 43.9078 41.0727 43.6579 40.1406 43.2075C39.2142 42.76 38.0789 42.0301 36.6453 41.1084Z" fill="#171A1E"/>
<path fill-rule="evenodd" clip-rule="evenodd" d="M28.625 45C29.1773 45 29.625 44.5523 29.625 44V28C29.625 27.4477 29.1773 27 28.625 27C28.0727 27 27.625 27.4477 27.625 28V44C27.625 44.5523 28.0727 45 28.625 45Z" fill="#171A1E"/>
</svg>
