<svg width="72" height="72" viewBox="0 0 72 72" fill="none" xmlns="http://www.w3.org/2000/svg">
<circle cx="36" cy="36" r="36" fill="#EBEEF0"/>
<path d="M38.4405 30.3371C40.0735 31.2647 41.3567 31.9938 42.2709 32.6615C43.1913 33.3339 43.8721 34.0367 44.1159 34.9633C44.2947 35.6427 44.2947 36.3575 44.1159 37.0369C43.8721 37.9635 43.1913 38.6662 42.2709 39.3386C41.3567 40.0064 40.0735 40.7354 38.4406 41.6631C36.8632 42.5592 35.533 43.3149 34.5232 43.7445C33.5053 44.1774 32.5773 44.3969 31.6754 44.1413C31.0125 43.9534 30.4094 43.5969 29.9236 43.1067C29.2642 42.4415 28.9995 41.522 28.8743 40.4155C28.75 39.317 28.75 37.8791 28.75 36.0502V35.95C28.75 34.1211 28.75 32.6832 28.8743 31.5847C28.9995 30.4782 29.2642 29.5587 29.9236 28.8934C30.4094 28.4032 31.0125 28.0467 31.6754 27.8589C32.5773 27.6033 33.5053 27.8228 34.5232 28.2557C35.533 28.6852 36.8632 29.4409 38.4405 30.3371Z" fill="#171A1E"/>
</svg>
