<svg width="192" height="192" viewBox="0 0 192 192" fill="none" xmlns="http://www.w3.org/2000/svg">
<g filter="url(#filter0_d_1_413)">
<rect x="72" y="72" width="48" height="48" rx="24" fill="white" shape-rendering="crispEdges"/>
<path fill-rule="evenodd" clip-rule="evenodd" d="M94.362 86.015C95.4264 85.6617 96.5736 85.6617 97.638 86.015C98.6981 86.3669 99.5304 87.2014 100.367 88.3739C101.2 89.5426 102.121 91.1721 103.308 93.2725L103.354 93.355C104.542 95.4557 105.462 97.0851 106.036 98.4065C106.613 99.7343 106.9 100.881 106.671 101.982C106.44 103.091 105.871 104.099 105.043 104.862C104.216 105.622 103.091 105.943 101.674 106.097C100.264 106.25 98.4212 106.25 96.0488 106.25H95.9513C93.5788 106.25 91.7355 106.25 90.3264 106.097C88.9093 105.943 87.7838 105.622 86.9572 104.862C86.1286 104.099 85.5597 103.091 85.329 101.982C85.0998 100.881 85.387 99.7343 85.9637 98.4065C86.5375 97.0851 87.4584 95.4557 88.6456 93.3549L88.6922 93.2725C89.8792 91.1721 90.8001 89.5426 91.6335 88.3739C92.4696 87.2014 93.3019 86.3669 94.362 86.015ZM95.6819 95.0273C95.9289 95.0605 96.2707 95.1494 96.5607 95.4394C96.8507 95.7294 96.9396 96.0711 96.9728 96.3182C97.0003 96.5228 97.0001 96.7608 97 96.9606V97V101C97 101.552 96.5523 102 96 102C95.4477 102 95 101.552 95 101V97C94.4477 97 94 96.5523 94 96C94 95.4477 94.4477 95 95 95H95.0394C95.2393 94.9999 95.4772 94.9997 95.6819 95.0273ZM95.9954 91C95.4456 91 94.9999 91.4477 94.9999 92C94.9999 92.5523 95.4456 93 95.9954 93H96.0044C96.5542 93 96.9999 92.5523 96.9999 92C96.9999 91.4477 96.5542 91 96.0044 91H95.9954Z" fill="#A8B6C6"/>
</g>
<defs>
<filter id="filter0_d_1_413" x="0" y="0" width="192" height="192" filterUnits="userSpaceOnUse" color-interpolation-filters="sRGB">
<feFlood flood-opacity="0" result="BackgroundImageFix"/>
<feColorMatrix in="SourceAlpha" type="matrix" values="0 0 0 0 0 0 0 0 0 0 0 0 0 0 0 0 0 0 127 0" result="hardAlpha"/>
<feOffset/>
<feGaussianBlur stdDeviation="36"/>
<feComposite in2="hardAlpha" operator="out"/>
<feColorMatrix type="matrix" values="0 0 0 0 0 0 0 0 0 0.117271 0 0 0 0 0.251296 0 0 0 0.1 0"/>
<feBlend mode="normal" in2="BackgroundImageFix" result="effect1_dropShadow_1_413"/>
<feBlend mode="normal" in="SourceGraphic" in2="effect1_dropShadow_1_413" result="shape"/>
</filter>
</defs>
</svg>
