<svg width="72" height="72" viewBox="0 0 72 72" fill="none" xmlns="http://www.w3.org/2000/svg">
<circle cx="36" cy="36" r="36" fill="#EBEEF0"/>
<path fill-rule="evenodd" clip-rule="evenodd" d="M36.3547 30.8916L36.444 30.949C37.7606 31.7954 38.807 32.4681 39.5505 33.0835C40.3069 33.7096 40.8649 34.3668 41.0441 35.22C41.152 35.7339 41.152 36.2659 41.0441 36.7798C40.8649 37.633 40.3069 38.2902 39.5505 38.9163C38.807 39.5318 37.7606 40.2044 36.4441 41.0508L36.3547 41.1082C34.9211 42.0299 33.7858 42.7598 32.8594 43.2073C31.9273 43.6577 31.0412 43.9076 30.1662 43.64C29.6501 43.4822 29.1775 43.2056 28.7827 42.8331C28.1219 42.2099 27.8656 41.3145 27.7451 40.2569C27.625 39.2027 27.625 37.8136 27.625 36.0507V35.9491C27.625 34.1862 27.625 32.7971 27.7451 31.743C27.8656 30.6853 28.1219 29.7899 28.7827 29.1667C29.1775 28.7943 29.6501 28.5176 30.1662 28.3598C31.0412 28.0922 31.9273 28.3421 32.8594 28.7925C33.7858 29.24 34.9211 29.9699 36.3547 30.8916Z" fill="#171A1E"/>
<path fill-rule="evenodd" clip-rule="evenodd" d="M44.375 27C43.8227 27 43.375 27.4477 43.375 28V44C43.375 44.5523 43.8227 45 44.375 45C44.9273 45 45.375 44.5523 45.375 44V28C45.375 27.4477 44.9273 27 44.375 27Z" fill="#171A1E"/>
</svg>
