<svg width="49" height="48" viewBox="0 0 49 48" fill="none" xmlns="http://www.w3.org/2000/svg">
<path fill-rule="evenodd" clip-rule="evenodd" d="M3 24C3 12.1259 12.6259 2.5 24.5 2.5C36.3742 2.5 46 12.1259 46 24C46 35.8742 36.3742 45.5 24.5 45.5C12.6259 45.5 3 35.8742 3 24ZM15.5993 35.1994C16.2617 35.6968 17.202 35.5632 17.6995 34.9008C19.2526 32.8328 21.7206 31.5 24.5 31.5C27.2796 31.5 29.7476 32.8328 31.3006 34.9008C31.7982 35.5632 32.7384 35.6968 33.401 35.1994C34.0634 34.7018 34.197 33.7616 33.6994 33.099C31.6042 30.3092 28.2632 28.5 24.5 28.5C20.737 28.5 17.396 30.3092 15.3007 33.099C14.8032 33.7616 14.9369 34.7018 15.5993 35.1994ZM16.5 15.5C15.1193 15.5 14 16.6193 14 18C14 19.3807 15.1193 20.5 16.5 20.5H16.5179C17.8987 20.5 19.0179 19.3807 19.0179 18C19.0179 16.6193 17.8987 15.5 16.5179 15.5H16.5ZM32.482 15.5C31.1014 15.5 29.982 16.6193 29.982 18C29.982 19.3807 31.1014 20.5 32.482 20.5H32.5C33.8808 20.5 35 19.3807 35 18C35 16.6193 33.8808 15.5 32.5 15.5H32.482Z" fill="#FD6060"/>
</svg>
