<svg width="24" height="24" viewBox="0 0 24 24" fill="none" xmlns="http://www.w3.org/2000/svg">
<path fill-rule="evenodd" clip-rule="evenodd" d="M3 21.75C3 21.1977 3.44772 20.75 4 20.75H20C20.5523 20.75 21 21.1977 21 21.75C21 22.3023 20.5523 22.75 20 22.75H4C3.44772 22.75 3 22.3023 3 21.75Z" fill="#01AAFF"/>
<path d="M15.5375 2.99C15.8451 2.68234 15.999 2.52852 15.9741 2.33381C15.9492 2.1391 15.7765 2.03754 15.4309 1.8344C14.8634 1.50082 14.2828 1.29482 13.6358 1.25772C13.3605 1.24194 13.0836 1.25039 12.8082 1.28274C11.8838 1.39135 11.0853 1.83222 10.2435 2.50318C9.42016 3.15936 8.4829 4.09663 7.2944 5.28515L5.28516 7.29439C4.09664 8.4829 3.15936 9.42016 2.50318 10.2435C1.83222 11.0853 1.39135 11.8838 1.28274 12.8082C1.25039 13.0836 1.24194 13.3605 1.25772 13.6358C1.29482 14.2828 1.50082 14.8634 1.83441 15.4309C2.03754 15.7765 2.13911 15.9492 2.33382 15.9741C2.52852 15.999 2.68235 15.8451 2.99001 15.5375L15.5375 2.99Z" fill="#01AAFF"/>
<path fill-rule="evenodd" clip-rule="evenodd" d="M3.88246 16.7662C3.62258 17.0261 3.49264 17.1561 3.4917 17.3204C3.49076 17.4847 3.6176 17.6145 3.87128 17.8741C4.2041 18.2146 4.56691 18.5774 4.95766 18.9682L5.03173 19.0422C6.14549 20.156 7.03239 21.0429 7.82361 21.6552C8.64013 22.287 9.43124 22.6888 10.3641 22.7423C10.6394 22.7581 10.9163 22.7496 11.1917 22.7173C12.1161 22.6087 12.9146 22.1678 13.7564 21.4968C14.5797 20.8407 15.517 19.9034 16.7054 18.7149L18.7148 16.7056C19.9033 15.5171 20.8406 14.5798 21.4967 13.7565C22.1677 12.9147 22.6086 12.1162 22.7172 11.1918C22.7495 10.9164 22.758 10.6395 22.7422 10.3642C22.6887 9.43135 22.2869 8.64024 21.6551 7.82372C21.0428 7.03248 20.156 6.14565 19.0421 5.03184L18.9681 4.95778C18.5774 4.56705 18.2145 4.20422 17.874 3.87138C17.6144 3.6177 17.4846 3.49086 17.3203 3.4918C17.1559 3.49275 17.026 3.62269 16.7661 3.88256L3.88246 16.7662ZM19.1488 10.5244C19.4417 10.8173 19.4417 11.2921 19.1488 11.585L16.9425 13.7913C16.6496 14.0842 16.1748 14.0842 15.8819 13.7913C15.589 13.4984 15.589 13.0235 15.8819 12.7306L18.0881 10.5244C18.381 10.2315 18.8559 10.2315 19.1488 10.5244ZM15.0515 14.6217C15.3443 14.9146 15.3443 15.3895 15.0515 15.6824L14.1059 16.6279C13.813 16.9208 13.3381 16.9208 13.0453 16.6279C12.7524 16.335 12.7524 15.8601 13.0453 15.5672L13.9908 14.6217C14.2837 14.3288 14.7586 14.3288 15.0515 14.6217Z" fill="#01AAFF"/>
</svg>
