<svg width="73" height="72" viewBox="0 0 73 72" fill="none" xmlns="http://www.w3.org/2000/svg">
<circle cx="36.5" cy="36" r="36" fill="#EBEEF0"/>
<path d="M35.4916 27.9756C36.1784 27.448 36.9957 27.0196 37.867 27.3881C38.7302 27.7532 39.0076 28.6327 39.1274 29.4979C39.2502 30.3846 39.2502 31.6056 39.2502 33.1237V38.8794C39.2502 40.3975 39.2502 41.6185 39.1274 42.5052C39.0076 43.3704 38.7302 44.2499 37.867 44.615C36.9957 44.9835 36.1784 44.5551 35.4916 44.0275C34.7892 43.488 33.8966 42.5765 32.8467 41.5044C32.3072 40.9535 31.9492 40.6873 31.5866 40.5374C31.2222 40.3868 30.7791 40.3229 30.0062 40.3229C29.3377 40.3229 28.7396 40.3229 28.2868 40.2758C27.8118 40.2265 27.3709 40.1191 26.9742 39.8485C26.2184 39.3328 25.9292 38.5777 25.8196 37.8838C25.7378 37.3663 25.7472 36.7981 25.7548 36.3405V35.6626C25.7472 35.205 25.7378 34.6368 25.8196 34.1193C25.9292 33.4254 26.2184 32.6703 26.9742 32.1546C27.3709 31.884 27.8118 31.7766 28.2868 31.7272C28.7396 31.6802 29.3377 31.6802 30.0062 31.6802C30.7791 31.6802 31.2222 31.6163 31.5866 31.4656C31.9492 31.3157 32.3072 31.0495 32.8466 30.4987C33.8966 29.4266 34.7892 28.5151 35.4916 27.9756Z" fill="#171A1E"/>
<path fill-rule="evenodd" clip-rule="evenodd" d="M40.8935 32.205C41.3325 31.87 41.9601 31.9544 42.2951 32.3935C43.0519 33.3854 43.5001 34.6418 43.5001 36.0001C43.5001 37.3583 43.0519 38.6147 42.2951 39.6066C41.9601 40.0457 41.3325 40.1301 40.8935 39.7951C40.4544 39.4601 40.37 38.8325 40.705 38.3935C41.199 37.746 41.5001 36.9149 41.5001 36.0001C41.5001 35.0852 41.199 34.2541 40.705 33.6066C40.37 33.1676 40.4544 32.54 40.8935 32.205Z" fill="#171A1E"/>
<path fill-rule="evenodd" clip-rule="evenodd" d="M43.8247 30.2624C44.2321 29.8895 44.8646 29.9174 45.2376 30.3247C46.6408 31.8573 47.5 33.8325 47.5 36C47.5 38.1675 46.6408 40.1427 45.2376 41.6753C44.8646 42.0826 44.2321 42.1105 43.8247 41.7376C43.4174 41.3646 43.3895 40.7321 43.7625 40.3247C44.8609 39.125 45.5 37.621 45.5 36C45.5 34.379 44.8609 32.875 43.7625 31.6753C43.3895 31.268 43.4174 30.6354 43.8247 30.2624Z" fill="#171A1E"/>
</svg>
